<svg xmlns="http://www.w3.org/2000/svg" id="logo" width="82.447" height="48.213" viewBox="0 0 82.447 48.213"><g id="Group_307" data-name="Group 307" transform="translate(5.036 0)"><path id="Path_976" data-name="Path 976" d="M22.817,24.282c0,.094-.1.14-.3.14H19.1c-.21,0-.312-.042-.312-.124s.243-.14.729-.171c.259-.021.409-.065.451-.133a2.2,2.2,0,0,0,.061-.724V18.728H15.3v4.417a1.7,1.7,0,0,0,.11.827,1.367,1.367,0,0,0,.739.173c.272.021.409.07.409.14,0,.094-.1.14-.314.14H12.826c-.21,0-.314-.042-.314-.124s.1-.136.314-.157l.426-.032a.629.629,0,0,0,.441-.154,3.781,3.781,0,0,0,.048-.873V14.849a2.552,2.552,0,0,0-.07-.827c-.048-.084-.21-.129-.5-.14-.326-.021-.516-.038-.574-.048s-.087-.055-.087-.131.068-.131.2-.131c.041,0,.131,0,.267.015q.393.031,1.857.031.8,0,1.118-.023a1.43,1.43,0,0,1,.284-.023c.188,0,.284.051.284.157s-.171.14-.512.14-.546.038-.613.117a1.516,1.516,0,0,0-.1.745v3.6h4.735V14.965a2.077,2.077,0,0,0-.126-.978q-.125-.148-.88-.131c-.157,0-.236-.048-.236-.14s.089-.14.267-.14h3.43c.221,0,.33.045.33.14s-.231.147-.692.157a1.025,1.025,0,0,0-.3.032.263.263,0,0,0-.2.171,3.724,3.724,0,0,0-.039.734v8.3a2.564,2.564,0,0,0,.078.875q.156.171.9.171C22.734,24.134,22.817,24.176,22.817,24.282Z" transform="translate(-12.512 -13.415)" fill="#0e334d"></path><path id="Path_977" data-name="Path 977" d="M43.373,19a5.766,5.766,0,0,1-1.408,3.934,4.421,4.421,0,0,1-3.453,1.607,4.728,4.728,0,0,1-3.651-1.632,5.761,5.761,0,0,1-1.479-4.018A5.672,5.672,0,0,1,34.8,14.9a4.718,4.718,0,0,1,3.642-1.553,4.472,4.472,0,0,1,3.509,1.624A5.9,5.9,0,0,1,43.373,19Zm-1.762.078a7.381,7.381,0,0,0-1.179-4.461,2.415,2.415,0,0,0-2.062-1,2.493,2.493,0,0,0-1.95.769q-1.274,1.412-1.274,4.588a7.267,7.267,0,0,0,.888,3.913,2.8,2.8,0,0,0,2.494,1.393,2.439,2.439,0,0,0,2.25-1.315,7.793,7.793,0,0,0,.834-3.886Z" transform="translate(-18.798 -13.347)" fill="#0e334d"></path><path id="Path_978" data-name="Path 978" d="M63.2,13.727c0,.1-.131.152-.393.14h-.629c-.168,0-.268.029-.3.086a1.567,1.567,0,0,0-.048.522v8.979q0,.826-.017.966c-.01.094-.041.14-.094.14s-.136-.057-.219-.173l-2.014-2.919q-1.747-2.555-4.252-6.381v8.74a.275.275,0,0,0,.238.259,6.723,6.723,0,0,0,1.065.07c.14,0,.21.042.21.124,0,.1-.14.157-.409.157q-.14,0-.9-.045-.252-.017-.489-.017c.01,0-.082.011-.275.032s-.489.031-.889.031h-.158c-.241,0-.361-.045-.361-.14s.1-.14.314-.14a3.025,3.025,0,0,0,1.082-.119q.148-.1.149-.665V15.667q0-1.3-.535-1.627a1.842,1.842,0,0,0-.9-.157c-.272,0-.409-.053-.409-.164s.079-.147.236-.147c.21,0,.477.01.8.031s.5.031.518.031.179,0,.441-.015c.349,0,.682-.015,1.008-.045l5.428,8.035V14.663c0-.322,0-.518-.015-.585a.21.21,0,0,0-.126-.157,2.725,2.725,0,0,0-.759-.05c-.377,0-.567-.045-.567-.14s.126-.154.378-.154h2.533Q63.2,13.573,63.2,13.727Z" transform="translate(-24.704 -13.415)" fill="#0e334d"></path><path id="Path_979" data-name="Path 979" d="M81.426,21.879q0,.063-.032.764c-.022.467-.032.917-.032,1.344V24.5q-1.541-.092-6.1-.094H73.292c-.2,0-.3-.042-.3-.126,0-.055.032-.088.094-.1.032,0,.231-.013.6-.042q.409-.031.5-.171a1.829,1.829,0,0,0,.087-.737v-8.8c0-.3-.045-.484-.133-.541a2.31,2.31,0,0,0-.857-.086c-.168,0-.252-.044-.252-.133s.115-.131.346-.131h6.671a5.485,5.485,0,0,0,.865-.063q.031.671.14,1.858l.063.671a1.048,1.048,0,0,1,.017.2c0,.1-.048.157-.14.157-.115,0-.2-.129-.252-.393a2.547,2.547,0,0,0-.978-1.792,7.179,7.179,0,0,0-2.643-.279H75.825v4.588H76.2a4.974,4.974,0,0,0,2.148-.265q.384-.266.528-1.546c.02-.219.079-.328.173-.328.115,0,.173.094.173.279s-.01.463-.032.827-.031.64-.031.827c0,1.112.017,1.879.05,2.294.008.1.013.193.013.265,0,.136-.058.2-.172.2-.074,0-.123-.044-.149-.133s-.07-.377-.133-.865A1.237,1.237,0,0,0,78,18.916a6.488,6.488,0,0,0-1.472-.1h-.7v5.231a30.406,30.406,0,0,0,4.059-.14q1.038-.231,1.18-1.974c.021-.256.089-.385.2-.385S81.426,21.661,81.426,21.879Z" transform="translate(-30.734 -13.388)" fill="#0e334d"></path><path id="Path_980" data-name="Path 980" d="M99.646,13.667c0,.08-.089.118-.268.118-.577.011-.933.11-1.07.3a20.458,20.458,0,0,0-1.353,2.681q-.518,1.109-.978,1.951a3.984,3.984,0,0,0-.362.791,5.481,5.481,0,0,0-.048.917v2.957q0,.517.135.611a2.737,2.737,0,0,0,.935.14c.284.019.426.07.426.147s-.074.118-.221.118h-.188l-2.2-.048q-.929,0-1.526.032a1.472,1.472,0,0,1-.221.015q-.22,0-.22-.149c0-.1.12-.152.362-.164a2.419,2.419,0,0,0,1.023-.157c.1-.082.157-.332.157-.745V19.9q-.159-.343-.913-1.827l-1.573-3.09c-.157-.3-.349-.64-.567-1.014a1.2,1.2,0,0,0-.747-.157q-.574,0-.574-.171,0-.126.252-.126.33,0,1.321.032c.377.01.651.015.818.015l1.825-.025a1.244,1.244,0,0,1,.252-.023c.189,0,.284.053.284.158s-.179.14-.535.14q-.978,0-.978.344a10.637,10.637,0,0,0,.99,2.151l1.429,2.684q.392-.7.893-1.722l.929-1.856a3.983,3.983,0,0,0,.526-1.321q0-.2-.267-.234a3.922,3.922,0,0,0-.739-.063c-.231.01-.349-.042-.349-.158q0-.126.3-.126h1.432Q99.646,13.475,99.646,13.667Z" transform="translate(-35.753 -13.395)" fill="#0e334d"></path></g><g id="Group_308" data-name="Group 308" transform="translate(5.036 15.333)"><path id="Path_981" data-name="Path 981" d="M20.8,45.2q0,.406-.048,1.342h-.173c-.064,0-.215-.01-.455-.031s-.514-.031-.817-.031l-6.533-.048c-.177,0-.267-.048-.267-.14,0-.07.14-.118.426-.14a1.555,1.555,0,0,0,.715-.133c.079-.07.118-.263.118-.585V36.658c0-.385-.039-.61-.118-.671a1.972,1.972,0,0,0-.838-.1q-.3,0-.3-.171c0-.094.064-.14.189-.14h.14q.52.045,2.062.045.14,0,.55-.023t.677-.023h.173c.189,0,.284.051.284.154a.11.11,0,0,1-.087.118,3.8,3.8,0,0,1-.544.038c-.3.011-.485.061-.543.149a2.127,2.127,0,0,0-.087.819v9.216q.425.015,1.18.015a12.194,12.194,0,0,0,2.6-.189,1.467,1.467,0,0,0,1.023-.7,3.438,3.438,0,0,0,.315-1.389c.01-.136.07-.2.181-.2.131,0,.191.078.182.234V45.2Z" transform="translate(-12.513 -35.379)" fill="#0e334d"></path><path id="Path_982" data-name="Path 982" d="M39.123,46.24c0,.089-.078.133-.235.133a2.113,2.113,0,0,1-.284-.015l-2-.063-2,.063a1.53,1.53,0,0,1-.236.015c-.21,0-.314-.053-.314-.162s.14-.181.424-.181q1.384-.015,1.385-.275a.753.753,0,0,0-.033-.122l-.128-.414L35.625,45q-.14-.489-.692-2.142H31.57a16.656,16.656,0,0,0-.943,2.873.242.242,0,0,0,.189.265q.046.015.786.063.456.015.456.154c0,.1-.14.157-.409.157q-.723,0-1.683-.061c-.157-.011-.32-.017-.489-.017a2.292,2.292,0,0,0-.489.053,1.053,1.053,0,0,1-.2.025c-.147,0-.22-.045-.22-.14s.166-.145.5-.157a1.52,1.52,0,0,0,.715-.149.894.894,0,0,0,.349-.509q2.026-5.765,3.294-9.257a1.782,1.782,0,0,1,.146-.414l.07-.286c.032-.114.074-.171.126-.171.031,0,.057.031.078.094q.2.609.929,2.545.566,1.512,2.817,7.6a.748.748,0,0,0,.321.449,2.322,2.322,0,0,0,.811.112C38.986,46.1,39.123,46.152,39.123,46.24ZM34.861,42.5l-.849-2.327-.755-2.166q-.664,1.729-1.6,4.491Z" transform="translate(-17.349 -35.292)" fill="#0e334d"></path><path id="Path_983" data-name="Path 983" d="M58.268,46.311c0,.1-.07.14-.22.14H53.989c-.2,0-.3-.038-.3-.118s.131-.128.393-.147q.819-.077.818-.265a65.05,65.05,0,0,0-4.3-5.074v4.5c0,.364.058.589.174.678a1.918,1.918,0,0,0,.928.131c.115,0,.174.051.174.157s-.074.14-.221.14H48.01c-.157,0-.236-.044-.236-.133s.194-.152.583-.162q.535-.017.629-.234a4.611,4.611,0,0,0,.048-.983v-8.7q-.016-.328-.871-.328c-.259,0-.388-.057-.388-.173,0-.094.09-.14.27-.14a1.944,1.944,0,0,1,.21.015q.254.031,1.411.031c.825,0,1.347-.01,1.57-.031.116-.01.238-.015.364-.015.191,0,.286.057.286.171a.108.108,0,0,1-.089.117,4.085,4.085,0,0,1-.549.04c-.308.01-.489.051-.549.124a1.541,1.541,0,0,0-.089.7v3.809l1.337-1.328A42.256,42.256,0,0,0,54.98,36.09q0-.2-.739-.189c-.314.011-.472-.042-.472-.157,0-.074.07-.114.22-.126s.656-.015,1.526-.015h.865c.368,0,.577.006.629.015.1.021.157.07.157.157,0,.114-.116.171-.349.171a4.955,4.955,0,0,0-.931.032.866.866,0,0,0-.409.261q-1.02,1.063-3.107,3.192l-.419.395-.2.223c.064.07.326.354.787.842q1.323,1.36,3.793,4.358a4.34,4.34,0,0,0,.716.749,1.733,1.733,0,0,0,.764.157C58.116,46.175,58.268,46.228,58.268,46.311Z" transform="translate(-23.137 -35.386)" fill="#0e334d"></path><path id="Path_984" data-name="Path 984" d="M75.685,43.89q0,.063-.032.764c-.022.467-.032.917-.032,1.344v.514q-1.541-.092-6.1-.094H67.55c-.2,0-.3-.042-.3-.126,0-.055.032-.088.094-.1.032,0,.231-.013.6-.042q.409-.031.5-.171a1.829,1.829,0,0,0,.087-.737v-8.8c0-.3-.045-.484-.133-.541a2.31,2.31,0,0,0-.857-.086c-.168,0-.252-.044-.252-.133s.115-.131.346-.131H74.3a5.484,5.484,0,0,0,.865-.063q.031.671.14,1.858l.063.671a1.049,1.049,0,0,1,.017.2c0,.1-.048.157-.14.157-.115,0-.2-.129-.252-.393a2.548,2.548,0,0,0-.978-1.792,7.179,7.179,0,0,0-2.643-.279H70.08V40.5h.377a4.974,4.974,0,0,0,2.148-.265q.384-.266.528-1.546c.02-.219.079-.328.173-.328.115,0,.173.094.173.279s-.01.463-.032.827-.031.64-.031.827c0,1.112.017,1.879.05,2.294.008.1.013.193.013.265,0,.136-.058.2-.172.2-.074,0-.123-.044-.149-.133s-.07-.377-.133-.865a1.237,1.237,0,0,0-.769-1.14,6.488,6.488,0,0,0-1.472-.1h-.7v5.231a30.405,30.405,0,0,0,4.059-.14q1.038-.231,1.18-1.974c.021-.256.089-.385.2-.385S75.685,43.673,75.685,43.89Z" transform="translate(-29.005 -35.353)" fill="#0e334d"></path></g><path id="Path_985" data-name="Path 985" d="M15.014,80.335a2.335,2.335,0,0,1,.02-4.669,2.376,2.376,0,0,1,1.775.715l-.349.374a1.985,1.985,0,0,0-1.43-.619,1.867,1.867,0,0,0,0,3.728,1.982,1.982,0,0,0,1.467-.651l.338.329a2.376,2.376,0,0,1-1.821.793Z" transform="translate(-7.546 -32.122)" fill="#0e334d"></path><path id="Path_986" data-name="Path 986" d="M29.658,75.778h.514v4.043h2.561v.471H29.658Z" transform="translate(-12.642 -32.156)" fill="#0e334d"></path><path id="Path_987" data-name="Path 987" d="M45.777,75.778v4.514H45.26V75.778Z" transform="translate(-17.343 -32.156)" fill="#0e334d"></path><path id="Path_988" data-name="Path 988" d="M61.029,75.778h.5v4.514h-.411l-2.935-3.7v3.7h-.5V75.778h.481L61.029,79.4Z" transform="translate(-21.086 -32.156)" fill="#0e334d"></path><path id="Path_989" data-name="Path 989" d="M75.388,75.778v4.514h-.514V75.778Z" transform="translate(-26.265 -32.156)" fill="#0e334d"></path><path id="Path_990" data-name="Path 990" d="M89.293,80.335a2.335,2.335,0,0,1,.02-4.669,2.376,2.376,0,0,1,1.775.715l-.349.374a1.985,1.985,0,0,0-1.43-.619,1.867,1.867,0,0,0,0,3.728,1.982,1.982,0,0,0,1.467-.651l.338.329A2.376,2.376,0,0,1,89.293,80.335Z" transform="translate(-29.925 -32.122)" fill="#0e334d"></path><path id="Path_991" data-name="Path 991" d="M5.3,65.329v-2.48a6.819,6.819,0,0,0,4.666-1.564,6.979,6.979,0,0,1,4.479-1.646,8,8,0,0,1,4.4,1.3,8.227,8.227,0,0,0,4.816,1.287,10.2,10.2,0,0,0,4.891-1,9.293,9.293,0,0,1,4.254-.973,9.433,9.433,0,0,1,4.286.978,10.247,10.247,0,0,0,4.86.994,14.616,14.616,0,0,0,4.957-.7,12.717,12.717,0,0,1,4.189-.655,22.541,22.541,0,0,1,4.085.341,27.886,27.886,0,0,0,5.126.388,25.515,25.515,0,0,0,4.909-.377,22.359,22.359,0,0,1,4.236-.354,24.036,24.036,0,0,1,4.377.36,25.771,25.771,0,0,0,4.769.371c2.874,0,4.142-.031,5.368-.061,1.021-.025,1.984-.049,3.778-.049v2.48c-1.763,0-2.712.024-3.716.048-1.184.029-2.525.062-5.43.062a28.005,28.005,0,0,1-5.171-.4,21.561,21.561,0,0,0-3.978-.328,19.721,19.721,0,0,0-3.824.32,28,28,0,0,1-5.321.411,30.361,30.361,0,0,1-5.52-.419,20.153,20.153,0,0,0-3.695-.312,10.293,10.293,0,0,0-3.463.548,16.986,16.986,0,0,1-5.678.807,12.66,12.66,0,0,1-5.869-1.2,7.038,7.038,0,0,0-3.279-.769,6.889,6.889,0,0,0-3.24.76,12.618,12.618,0,0,1-5.9,1.213,10.713,10.713,0,0,1-6.06-1.616,5.5,5.5,0,0,0-3.152-.978A4.567,4.567,0,0,0,11.439,63.3a9.247,9.247,0,0,1-6.134,2.034Z" transform="translate(-5.305 -27.294)" fill="#37b9ea"></path></svg>